<?xml version="1.0" encoding="UTF-8" standalone="no"?>
<!-- Created with Inkscape (http://www.inkscape.org/) -->

<svg
   xmlns:dc="http://purl.org/dc/elements/1.1/"
   xmlns:cc="http://creativecommons.org/ns#"
   xmlns:rdf="http://www.w3.org/1999/02/22-rdf-syntax-ns#"
   xmlns:svg="http://www.w3.org/2000/svg"
   xmlns="http://www.w3.org/2000/svg"
   xmlns:sodipodi="http://sodipodi.sourceforge.net/DTD/sodipodi-0.dtd"
   xmlns:inkscape="http://www.inkscape.org/namespaces/inkscape"
   version="1.0"
   width="862.46259"
   height="555.12268"
   id="svg2"
   sodipodi:version="0.32"
   inkscape:version="0.47pre4 r22446"
   sodipodi:docname="Synapse_Illustration2_tweaked.svg"
   inkscape:output_extension="org.inkscape.output.svg.inkscape">
  <metadata
     id="metadata108">
    <rdf:RDF>
      <cc:Work
         rdf:about="">
        <dc:format>image/svg+xml</dc:format>
        <dc:type
           rdf:resource="http://purl.org/dc/dcmitype/StillImage" />
        <dc:title></dc:title>
      </cc:Work>
    </rdf:RDF>
  </metadata>
  <sodipodi:namedview
     inkscape:window-height="525"
     inkscape:window-width="985"
     inkscape:pageshadow="2"
     inkscape:pageopacity="0.0"
     guidetolerance="10.0"
     gridtolerance="10.0"
     objecttolerance="10.0"
     borderopacity="1.0"
     bordercolor="#666666"
     pagecolor="#ffffff"
     id="base"
     inkscape:zoom="0.48149061"
     inkscape:cx="151.22624"
     inkscape:cy="262.50726"
     inkscape:window-x="22"
     inkscape:window-y="24"
     inkscape:current-layer="svg2"
     showgrid="false"
     inkscape:window-maximized="0" />
  <defs
     id="defs5">
    <inkscape:perspective
       sodipodi:type="inkscape:persp3d"
       inkscape:vp_x="0 : 277.56134 : 1"
       inkscape:vp_y="0 : 1000 : 0"
       inkscape:vp_z="862.46259 : 277.56134 : 1"
       inkscape:persp3d-origin="431.23129 : 185.04089 : 1"
       id="perspective3038" />
  </defs>
  <path
     d="M 406.90416,1.7839817 L 273.87599,2.9160124 C 275.14503,15.329118 277.54128,87.328318 277.92261,112.92315 C 277.88483,133.43779 279.94689,162.57477 273.6557,176.62567 C 262.37424,203.93798 212.01319,236.73882 198.44072,266.56351 C 190.67655,284.28697 189.8941,306.61225 189.8941,325.46942 C 194.80566,360.25538 205.04603,366.54076 224.23785,384.40692 C 247.64891,397.87664 267.01782,405.71555 295.8316,408.25067 C 318.00877,411.82187 340.97982,412.92516 363.36285,411.62567 C 371.55226,411.24608 379.05248,411.12733 385.98785,411.12567 C 384.46184,403.49293 386.32019,393.92135 390.8316,391.31317 C 393.32359,386.68796 401.77222,383.18067 409.2691,382.59442 C 414.94752,382.87351 418.82785,383.10237 426.42535,390.53192 C 428.27782,394.75803 433.62842,400.77514 431.17535,407.12567 C 432.54094,409.15958 434.47196,409.92582 436.61285,410.31317 C 441.18706,409.49518 445.06877,408.15269 448.3941,406.03192 C 463.83765,401.39199 476.37121,391.30287 484.2066,377.68817 C 504.60632,343.1488 508.89342,298.71126 478.65643,252.05872 C 466.33947,230.92032 426.62101,209.52632 411.53138,171.07802 C 407.02027,159.25257 406.01734,132.24636 405.29675,116.68851 C 406.20583,71.179964 407.15927,40.932496 406.90416,1.7839817 z "
     style="fill:#fede58;fill-opacity:1;fill-rule:evenodd;stroke:#000000;stroke-width:5;stroke-linecap:butt;stroke-linejoin:miter;stroke-miterlimit:4;stroke-dasharray:none;stroke-opacity:1"
     id="path2161"
     sodipodi:nodetypes="ccccccccccccccccccccc" />
  <path
     d="M 357.79323,284.67599 A 23.606705,23.606705 0 1 1 357.7924,284.47846"
     transform="translate(-71.555614,40.960044)"
     style="fill:#ffffff;fill-opacity:1;fill-rule:evenodd;stroke:#000000;stroke-width:2;stroke-linecap:square;stroke-linejoin:miter;stroke-miterlimit:4;stroke-dasharray:none;stroke-dashoffset:7;stroke-opacity:1"
     id="path5140" />
  <path
     d="M 357.79323,284.67599 A 23.606705,23.606705 0 1 1 357.7924,284.47846"
     transform="translate(-30.144972,97.141362)"
     style="fill:#ffffff;fill-opacity:1;fill-rule:evenodd;stroke:#000000;stroke-width:2;stroke-linecap:square;stroke-linejoin:miter;stroke-miterlimit:4;stroke-dasharray:none;stroke-dashoffset:7;stroke-opacity:1"
     id="path5168" />
  <path
     d="M 357.79323,284.67599 A 23.606705,23.606705 0 1 1 357.7924,284.47846"
     transform="translate(124.3967,38.765228)"
     style="fill:#ffffff;fill-opacity:1;fill-rule:evenodd;stroke:#000000;stroke-width:2;stroke-linecap:square;stroke-linejoin:miter;stroke-miterlimit:4;stroke-dasharray:none;stroke-dashoffset:7;stroke-opacity:1"
     id="path5184" />
  <path
     d="M 139.17585,552.62269 C 190.8256,523.05488 170.98646,511.03561 215.6441,469.44015 C 226.95205,460.0263 239.59589,458.53106 253.3187,456.3846 C 276.28111,460.12442 306.94877,455.6791 333.51712,463.4719 C 358.94854,467.50241 377.49583,468.38145 400.28696,464.96396 C 417.91507,465.65319 434.84362,458.86219 452.50918,461.2338 C 475.48984,457.08709 506.02259,476.63871 519.27902,496.2973 C 528.42144,510.70922 552.94208,553.74431 571.94471,552.77261"
     style="fill:#abda4e;fill-opacity:1;fill-rule:evenodd;stroke:#000000;stroke-width:5;stroke-linecap:butt;stroke-linejoin:miter;stroke-miterlimit:4;stroke-dasharray:none;stroke-opacity:1"
     id="path5263"
     sodipodi:nodetypes="cccccccc" />
  <path
     d="M 396.74331,475.96793 C 394.47846,492.20926 395.16703,508.17527 450.45759,519.05127 C 450.94914,520.98515 452.38632,522.62489 450.45759,525.20603 C 398.23737,515.76966 385.54388,497.54958 391.33458,475.2219 C 392.90232,474.88264 394.23316,473.95115 396.74331,475.96793 z "
     style="fill:#0a51a1;fill-opacity:1;fill-rule:evenodd;stroke:#0a51a1;stroke-width:1px;stroke-linecap:butt;stroke-linejoin:miter;stroke-opacity:1"
     id="path6234" />
  <path
     d="M 357.79323,284.67599 A 23.606705,23.606705 0 1 1 357.7924,284.47846"
     transform="translate(3.2209306,-0.5824691)"
     style="fill:#ffffff;fill-opacity:1;fill-rule:evenodd;stroke:#000000;stroke-width:2;stroke-linecap:square;stroke-linejoin:miter;stroke-miterlimit:4;stroke-dasharray:none;stroke-dashoffset:7;stroke-opacity:1"
     id="path3188" />
  <path
     d="M 445.41802,290.29192 C 420.12826,260.79768 383.70945,260.90008 384.48898,262.06938 L 384.48898,254.94781 C 378.95176,261.28167 371.52922,263.84488 363.91554,266.02581 C 370.57818,267.77985 376.31276,267.21375 384.22522,272.09234 L 384.22522,267.60838 C 409.68718,269.09052 423.74171,279.967 437.50515,291.08321 C 440.56231,294.38553 443.72304,298.56817 445.41802,290.29192 z "
     style="fill:#000000;fill-rule:evenodd;stroke:#000000;stroke-width:1px;stroke-linecap:butt;stroke-linejoin:miter;stroke-opacity:1"
     id="path3151" />
  <path
     d="M 204.82029,132.5766 L 305.96699,241.5312 L 309.29541,231.24191 C 310.34316,237.53724 311.9831,244.26854 314.81727,251.87903 C 309.34339,249.78679 303.18392,247.70063 295.49348,245.62809 L 304.06275,243.13296 L 202.49531,133.76505 C 202.54447,132.13376 203.73543,132.44546 204.82029,132.5766 z "
     style="fill:#ff0000;fill-opacity:1;fill-rule:evenodd;stroke:#ff0000;stroke-width:1px;stroke-linecap:butt;stroke-linejoin:miter;stroke-opacity:1"
     id="path3153" />
  <path
     d="M 113.37108,306.21204 L 222.15385,367.07734 C 221.9528,364.51654 222.55504,361.14176 223.12237,357.80237 C 225.80269,363.54924 228.71437,369.13005 233.09306,373.65779 C 227.53706,373.48132 222.15329,374.08351 216.95758,375.53578 C 218.70657,373.54428 220.30585,371.48487 221.5504,369.26458 L 111.98689,308.6928 C 112.06973,307.78333 111.81033,306.79922 113.37108,306.21204 z "
     style="fill:#ff0000;fill-opacity:1;fill-rule:evenodd;stroke:#ff0000;stroke-width:1px;stroke-linecap:butt;stroke-linejoin:miter;stroke-opacity:1"
     id="path3156"
     inkscape:transform-center-x="13.217207" />
  <path
     d="M 141.32698,444.84981 L 260.16857,493.1251 C 260.82263,491.77793 261.0058,489.05347 261.36899,486.85558 C 264.04805,491.1475 267.33316,495.05958 271.14384,498.64227 C 264.7416,498.36014 258.33936,498.33356 251.93712,498.64227 C 254.34949,497.34657 256.70449,496.05088 258.79666,494.75517 L 139.44061,445.97833 C 139.55952,445.469 139.07303,444.8016 141.32698,444.84981 z "
     style="fill:#ff0000;fill-opacity:1;fill-rule:evenodd;stroke:#ff0000;stroke-width:0.78623492px;stroke-linecap:butt;stroke-linejoin:miter;stroke-opacity:1"
     id="path3158" />
  <path
     d="M 544.97157,203.5191 L 481.11879,362.45445 C 478.17684,362.27259 475.70508,360.39492 473.14749,358.8268 C 475.75664,363.84088 476.01068,369.15905 475.99827,374.51164 C 481.25097,369.64984 486.55519,365.52967 491.95629,362.80447 C 488.69524,363.47119 485.51104,363.89181 482.80987,362.76584 L 547.71187,203.94142 C 547.19283,202.15354 546.1574,202.5223 544.97157,203.5191 z "
     style="fill:#ff0000;fill-opacity:1;fill-rule:evenodd;stroke:#ff0000;stroke-width:1px;stroke-linecap:butt;stroke-linejoin:miter;stroke-opacity:1"
     id="path3181"
     inkscape:transform-center-x="-15.194298"
     inkscape:transform-center-y="16.603351"
     sodipodi:nodetypes="cccccccc" />
  <path
     d="M 335.29736,383.00428 L 362.33297,386.43319 C 362.27277,384.31835 362.20922,382.19344 361.80544,379.04785 C 365.23524,384.57669 370.78107,389.16507 377.36741,393.291 C 367.75773,394.18855 361.42409,396.45111 356.00268,399.09377 C 358.28369,396.89575 360.33683,394.69774 360.88228,392.49972 L 335.29736,389.07081 C 334.06646,387.04863 334.06649,385.02646 335.29736,383.00428 z "
     style="fill:#000000;fill-rule:evenodd;stroke:#000000;stroke-width:1px;stroke-linecap:butt;stroke-linejoin:miter;stroke-opacity:1"
     id="path3185" />
  <path
     d="M 323.89979,280.45578 A 3.1651447,3.1651447 0 1 1 323.89968,280.42929"
     transform="translate(4.1440973,-0.186826)"
     style="fill:#ffffff;fill-opacity:1;fill-rule:evenodd;stroke:#000000;stroke-width:2;stroke-linecap:square;stroke-linejoin:miter;stroke-miterlimit:4;stroke-dasharray:none;stroke-dashoffset:7;stroke-opacity:1"
     id="path4159" />
  <path
     d="M 323.89979,280.45578 A 3.1651447,3.1651447 0 1 1 323.89968,280.42929"
     transform="translate(12.452602,5.4181176)"
     style="fill:#ffffff;fill-opacity:1;fill-rule:evenodd;stroke:#000000;stroke-width:2;stroke-linecap:square;stroke-linejoin:miter;stroke-miterlimit:4;stroke-dasharray:none;stroke-dashoffset:7;stroke-opacity:1"
     id="path5130" />
  <path
     d="M 323.89979,280.45578 A 3.1651447,3.1651447 0 1 1 323.89968,280.42929"
     transform="translate(27.487039,7.6600951)"
     style="fill:#ffffff;fill-opacity:1;fill-rule:evenodd;stroke:#000000;stroke-width:2;stroke-linecap:square;stroke-linejoin:miter;stroke-miterlimit:4;stroke-dasharray:none;stroke-dashoffset:7;stroke-opacity:1"
     id="path5132" />
  <path
     d="M 323.89979,280.45578 A 3.1651447,3.1651447 0 1 1 323.89968,280.42929"
     transform="translate(20.827047,17.748994)"
     style="fill:#ffffff;fill-opacity:1;fill-rule:evenodd;stroke:#000000;stroke-width:2;stroke-linecap:square;stroke-linejoin:miter;stroke-miterlimit:4;stroke-dasharray:none;stroke-dashoffset:7;stroke-opacity:1"
     id="path5134" />
  <path
     d="M 323.89979,280.45578 A 3.1651447,3.1651447 0 1 1 323.89968,280.42929"
     transform="translate(16.870616,-6.648996)"
     style="fill:#ffffff;fill-opacity:1;fill-rule:evenodd;stroke:#000000;stroke-width:2;stroke-linecap:square;stroke-linejoin:miter;stroke-miterlimit:4;stroke-dasharray:none;stroke-dashoffset:7;stroke-opacity:1"
     id="path5136" />
  <path
     d="M 323.89979,280.45578 A 3.1651447,3.1651447 0 1 1 323.89968,280.42929"
     transform="translate(29.135552,-7.1765201)"
     style="fill:#ffffff;fill-opacity:1;fill-rule:evenodd;stroke:#000000;stroke-width:2;stroke-linecap:square;stroke-linejoin:miter;stroke-miterlimit:4;stroke-dasharray:none;stroke-dashoffset:7;stroke-opacity:1"
     id="path5138" />
  <path
     d="M 323.89979,280.45578 A 3.1651447,3.1651447 0 1 1 323.89968,280.42929"
     transform="translate(-72.870542,43.314021)"
     style="fill:#ffffff;fill-opacity:1;fill-rule:evenodd;stroke:#000000;stroke-width:2;stroke-linecap:square;stroke-linejoin:miter;stroke-miterlimit:4;stroke-dasharray:none;stroke-dashoffset:7;stroke-opacity:1"
     id="path5142" />
  <path
     d="M 323.89979,280.45578 A 3.1651447,3.1651447 0 1 1 323.89968,280.42929"
     transform="translate(-64.562037,49.75825)"
     style="fill:#ffffff;fill-opacity:1;fill-rule:evenodd;stroke:#000000;stroke-width:2;stroke-linecap:square;stroke-linejoin:miter;stroke-miterlimit:4;stroke-dasharray:none;stroke-dashoffset:7;stroke-opacity:1"
     id="path5144" />
  <path
     d="M 323.89979,280.45578 A 3.1651447,3.1651447 0 1 1 323.89968,280.42929"
     transform="translate(-50.087124,51.533958)"
     style="fill:#ffffff;fill-opacity:1;fill-rule:evenodd;stroke:#000000;stroke-width:2;stroke-linecap:square;stroke-linejoin:miter;stroke-miterlimit:4;stroke-dasharray:none;stroke-dashoffset:7;stroke-opacity:1"
     id="path5146" />
  <path
     d="M 323.89979,280.45578 A 3.1651447,3.1651447 0 1 1 323.89968,280.42929"
     transform="translate(-56.280846,61.809365)"
     style="fill:#ffffff;fill-opacity:1;fill-rule:evenodd;stroke:#000000;stroke-width:2;stroke-linecap:square;stroke-linejoin:miter;stroke-miterlimit:4;stroke-dasharray:none;stroke-dashoffset:7;stroke-opacity:1"
     id="path5148" />
  <path
     d="M 323.89979,280.45578 A 3.1651447,3.1651447 0 1 1 323.89968,280.42929"
     transform="translate(-60.517039,37.131613)"
     style="fill:#ffffff;fill-opacity:1;fill-rule:evenodd;stroke:#000000;stroke-width:2;stroke-linecap:square;stroke-linejoin:miter;stroke-miterlimit:4;stroke-dasharray:none;stroke-dashoffset:7;stroke-opacity:1"
     id="path5150" />
  <path
     d="M 323.89979,280.45578 A 3.1651447,3.1651447 0 1 1 323.89968,280.42929"
     transform="translate(-47.879087,36.977104)"
     style="fill:#ffffff;fill-opacity:1;fill-rule:evenodd;stroke:#000000;stroke-width:2;stroke-linecap:square;stroke-linejoin:miter;stroke-miterlimit:4;stroke-dasharray:none;stroke-dashoffset:7;stroke-opacity:1"
     id="path5152" />
  <path
     d="M 323.89979,280.45578 A 3.1651447,3.1651447 0 1 1 323.89968,280.42929"
     transform="translate(-29.221805,97.537006)"
     style="fill:#ffffff;fill-opacity:1;fill-rule:evenodd;stroke:#000000;stroke-width:2;stroke-linecap:square;stroke-linejoin:miter;stroke-miterlimit:4;stroke-dasharray:none;stroke-dashoffset:7;stroke-opacity:1"
     id="path5170" />
  <path
     d="M 323.89979,280.45578 A 3.1651447,3.1651447 0 1 1 323.89968,280.42929"
     transform="translate(-20.9133,103.14194)"
     style="fill:#ffffff;fill-opacity:1;fill-rule:evenodd;stroke:#000000;stroke-width:2;stroke-linecap:square;stroke-linejoin:miter;stroke-miterlimit:4;stroke-dasharray:none;stroke-dashoffset:7;stroke-opacity:1"
     id="path5172" />
  <path
     d="M 323.89979,280.45578 A 3.1651447,3.1651447 0 1 1 323.89968,280.42929"
     transform="translate(-5.8788627,105.38392)"
     style="fill:#ffffff;fill-opacity:1;fill-rule:evenodd;stroke:#000000;stroke-width:2;stroke-linecap:square;stroke-linejoin:miter;stroke-miterlimit:4;stroke-dasharray:none;stroke-dashoffset:7;stroke-opacity:1"
     id="path5174" />
  <path
     d="M 323.89979,280.45578 A 3.1651447,3.1651447 0 1 1 323.89968,280.42929"
     transform="translate(-12.538855,115.47282)"
     style="fill:#ffffff;fill-opacity:1;fill-rule:evenodd;stroke:#000000;stroke-width:2;stroke-linecap:square;stroke-linejoin:miter;stroke-miterlimit:4;stroke-dasharray:none;stroke-dashoffset:7;stroke-opacity:1"
     id="path5176" />
  <path
     d="M 323.89979,280.45578 A 3.1651447,3.1651447 0 1 1 323.89968,280.42929"
     transform="translate(-16.495286,91.074836)"
     style="fill:#ffffff;fill-opacity:1;fill-rule:evenodd;stroke:#000000;stroke-width:2;stroke-linecap:square;stroke-linejoin:miter;stroke-miterlimit:4;stroke-dasharray:none;stroke-dashoffset:7;stroke-opacity:1"
     id="path5178" />
  <path
     d="M 323.89979,280.45578 A 3.1651447,3.1651447 0 1 1 323.89968,280.42929"
     transform="translate(-4.2303495,90.547311)"
     style="fill:#ffffff;fill-opacity:1;fill-rule:evenodd;stroke:#000000;stroke-width:2;stroke-linecap:square;stroke-linejoin:miter;stroke-miterlimit:4;stroke-dasharray:none;stroke-dashoffset:7;stroke-opacity:1"
     id="path5180" />
  <path
     d="M 323.89979,280.45578 A 3.1651447,3.1651447 0 1 1 323.89968,280.42929"
     transform="translate(123.08177,36.922776)"
     style="fill:#ffffff;fill-opacity:1;fill-rule:evenodd;stroke:#000000;stroke-width:2;stroke-linecap:square;stroke-linejoin:miter;stroke-miterlimit:4;stroke-dasharray:none;stroke-dashoffset:7;stroke-opacity:1"
     id="path5186" />
  <path
     d="M 454.47844,328.44282 C 454.47838,330.1883 453.06528,331.60426 451.31981,331.60786 C 449.57434,331.61145 448.15542,330.20132 448.14818,328.45586 C 448.14093,326.7104 449.54809,325.28854 451.29353,325.27764 C 453.03897,325.26674 454.46378,326.67092 454.47833,328.41633"
     style="fill:#ffffff;fill-opacity:1;fill-rule:evenodd;stroke:#000000;stroke-width:2;stroke-linecap:square;stroke-linejoin:miter;stroke-miterlimit:4;stroke-dasharray:none;stroke-dashoffset:7;stroke-opacity:1"
     id="path5188" />
  <path
     d="M 323.89979,280.45578 A 3.1651447,3.1651447 0 1 1 323.89968,280.42929"
     transform="translate(145.49218,45.515729)"
     style="fill:#ffffff;fill-opacity:1;fill-rule:evenodd;stroke:#000000;stroke-width:2;stroke-linecap:square;stroke-linejoin:miter;stroke-miterlimit:4;stroke-dasharray:none;stroke-dashoffset:7;stroke-opacity:1"
     id="path5190" />
  <path
     d="M 323.89979,280.45578 A 3.1651447,3.1651447 0 1 1 323.89968,280.42929"
     transform="translate(140.32425,55.604628)"
     style="fill:#ffffff;fill-opacity:1;fill-rule:evenodd;stroke:#000000;stroke-width:2;stroke-linecap:square;stroke-linejoin:miter;stroke-miterlimit:4;stroke-dasharray:none;stroke-dashoffset:7;stroke-opacity:1"
     id="path5192" />
  <path
     d="M 323.89979,280.45578 A 3.1651447,3.1651447 0 1 1 323.89968,280.42929"
     transform="translate(135.80829,31.02013)"
     style="fill:#ffffff;fill-opacity:1;fill-rule:evenodd;stroke:#000000;stroke-width:2;stroke-linecap:square;stroke-linejoin:miter;stroke-miterlimit:4;stroke-dasharray:none;stroke-dashoffset:7;stroke-opacity:1"
     id="path5194" />
  <path
     d="M 323.89979,280.45578 A 3.1651447,3.1651447 0 1 1 323.89968,280.42929"
     transform="translate(148.44624,31.052129)"
     style="fill:#ffffff;fill-opacity:1;fill-rule:evenodd;stroke:#000000;stroke-width:2;stroke-linecap:square;stroke-linejoin:miter;stroke-miterlimit:4;stroke-dasharray:none;stroke-dashoffset:7;stroke-opacity:1"
     id="path5196" />
  <path
     d="M 349.53018,272.62763 C 351.9921,267.90259 352.05085,264.73334 352.92841,259.35952 C 353.77431,261.2385 355.15377,261.6641 356.64495,262.72256 L 439.62321,60.026026 C 440.50248,59.774413 441.2901,59.713945 441.59068,60.669436 L 357.50007,264.20856 C 358.82319,265.19872 360.20272,266.08524 361.99588,266.21182 C 356.30625,267.81612 352.7558,270.16532 349.53018,272.62763 z "
     style="fill:#ff0000;fill-opacity:1;fill-rule:evenodd;stroke:#ff0000;stroke-width:0.89072275px;stroke-linecap:butt;stroke-linejoin:miter;stroke-opacity:1"
     id="path3183"
     sodipodi:nodetypes="cccccccc" />
  <path
     d="M 323.89979,280.45578 A 3.1651447,3.1651447 0 1 1 323.89968,280.42929"
     transform="translate(79.448171,122.7263)"
     style="fill:#ffffff;fill-opacity:1;fill-rule:evenodd;stroke:#000000;stroke-width:2;stroke-linecap:square;stroke-linejoin:miter;stroke-miterlimit:4;stroke-dasharray:none;stroke-dashoffset:7;stroke-opacity:1"
     id="path5198" />
  <path
     d="M 323.89979,280.45578 A 3.1651447,3.1651447 0 1 1 323.89968,280.42929"
     transform="translate(95.669537,135.12311)"
     style="fill:#ffffff;fill-opacity:1;fill-rule:evenodd;stroke:#000000;stroke-width:2;stroke-linecap:square;stroke-linejoin:miter;stroke-miterlimit:4;stroke-dasharray:none;stroke-dashoffset:7;stroke-opacity:1"
     id="path5200" />
  <path
     d="M 323.89979,280.45578 A 3.1651447,3.1651447 0 1 1 323.89968,280.42929"
     transform="translate(104.24181,157.14725)"
     style="fill:#ffffff;fill-opacity:1;fill-rule:evenodd;stroke:#000000;stroke-width:2;stroke-linecap:square;stroke-linejoin:miter;stroke-miterlimit:4;stroke-dasharray:none;stroke-dashoffset:7;stroke-opacity:1"
     id="path5202" />
  <path
     d="M 323.89979,280.45578 A 3.1651447,3.1651447 0 1 1 323.89968,280.42929"
     transform="translate(102.13171,166.24703)"
     style="fill:#ffffff;fill-opacity:1;fill-rule:evenodd;stroke:#000000;stroke-width:2;stroke-linecap:square;stroke-linejoin:miter;stroke-miterlimit:4;stroke-dasharray:none;stroke-dashoffset:7;stroke-opacity:1"
     id="path5204" />
  <path
     d="M 323.89979,280.45578 A 3.1651447,3.1651447 0 1 1 323.89968,280.42929"
     transform="translate(77.074313,149.76191)"
     style="fill:#ffffff;fill-opacity:1;fill-rule:evenodd;stroke:#000000;stroke-width:2;stroke-linecap:square;stroke-linejoin:miter;stroke-miterlimit:4;stroke-dasharray:none;stroke-dashoffset:7;stroke-opacity:1"
     id="path5206" />
  <path
     d="M 323.89979,280.45578 A 3.1651447,3.1651447 0 1 1 323.89968,280.42929"
     transform="translate(70.744023,157.67477)"
     style="fill:#ffffff;fill-opacity:1;fill-rule:evenodd;stroke:#000000;stroke-width:2;stroke-linecap:square;stroke-linejoin:miter;stroke-miterlimit:4;stroke-dasharray:none;stroke-dashoffset:7;stroke-opacity:1"
     id="path5208" />
  <path
     d="M 323.89979,280.45578 A 3.1651447,3.1651447 0 1 1 323.89968,280.42929"
     transform="translate(60.852946,149.63003)"
     style="fill:#ffffff;fill-opacity:1;fill-rule:evenodd;stroke:#000000;stroke-width:2;stroke-linecap:square;stroke-linejoin:miter;stroke-miterlimit:4;stroke-dasharray:none;stroke-dashoffset:7;stroke-opacity:1"
     id="path5210" />
  <path
     d="M 323.89979,280.45578 A 3.1651447,3.1651447 0 1 1 323.89968,280.42929"
     transform="translate(50.193541,149.63003)"
     style="fill:#ffffff;fill-opacity:1;fill-rule:evenodd;stroke:#000000;stroke-width:2;stroke-linecap:square;stroke-linejoin:miter;stroke-miterlimit:4;stroke-dasharray:none;stroke-dashoffset:7;stroke-opacity:1"
     id="path5212" />
  <path
     d="M 323.89979,280.45578 A 3.1651447,3.1651447 0 1 1 323.89968,280.42929"
     transform="translate(58.610968,170.07158)"
     style="fill:#ffffff;fill-opacity:1;fill-rule:evenodd;stroke:#000000;stroke-width:2;stroke-linecap:square;stroke-linejoin:miter;stroke-miterlimit:4;stroke-dasharray:none;stroke-dashoffset:7;stroke-opacity:1"
     id="path5214" />
  <path
     d="M 323.89979,280.45578 A 3.1651447,3.1651447 0 1 1 323.89968,280.42929"
     transform="translate(39.613029,168.29637)"
     style="fill:#ffffff;fill-opacity:1;fill-rule:evenodd;stroke:#000000;stroke-width:2;stroke-linecap:square;stroke-linejoin:miter;stroke-miterlimit:4;stroke-dasharray:none;stroke-dashoffset:7;stroke-opacity:1"
     id="path5216" />
  <path
     d="M 323.89979,280.45578 A 3.1651447,3.1651447 0 1 1 323.89968,280.42929"
     transform="translate(12.188847,168.35714)"
     style="fill:#ffffff;fill-opacity:1;fill-rule:evenodd;stroke:#000000;stroke-width:2;stroke-linecap:square;stroke-linejoin:miter;stroke-miterlimit:4;stroke-dasharray:none;stroke-dashoffset:7;stroke-opacity:1"
     id="path5218" />
  <path
     d="M 323.89979,280.45578 A 3.1651447,3.1651447 0 1 1 323.89968,280.42929"
     transform="translate(77.873734,173.1312)"
     style="fill:#ffffff;fill-opacity:1;fill-rule:evenodd;stroke:#000000;stroke-width:2;stroke-linecap:square;stroke-linejoin:miter;stroke-miterlimit:4;stroke-dasharray:none;stroke-dashoffset:7;stroke-opacity:1"
     id="path5220" />
  <path
     d="M 419.11792,465.353 A 6.3302894,15.034437 0 1 1 419.1177,465.22719"
     transform="translate(4.1440973,-0.186826)"
     style="fill:#f0037f;fill-opacity:1;fill-rule:evenodd;stroke:#000000;stroke-width:2;stroke-linecap:square;stroke-linejoin:miter;stroke-miterlimit:4;stroke-dasharray:none;stroke-dashoffset:7;stroke-opacity:1"
     id="path5223" />
  <path
     d="M 419.11792,465.353 A 6.3302894,15.034437 0 1 1 419.1177,465.22719"
     transform="translate(-10.800855,-5.4945e-2)"
     style="fill:#f0037f;fill-opacity:1;fill-rule:evenodd;stroke:#000000;stroke-width:2;stroke-linecap:square;stroke-linejoin:miter;stroke-miterlimit:4;stroke-dasharray:none;stroke-dashoffset:7;stroke-opacity:1"
     id="path5225" />
  <path
     d="M 419.11792,465.353 A 6.3302894,15.034437 0 1 1 419.1177,465.22719"
     transform="translate(-41.663376,1.09906e-2)"
     style="fill:#f0037f;fill-opacity:1;fill-rule:evenodd;stroke:#000000;stroke-width:2;stroke-linecap:square;stroke-linejoin:miter;stroke-miterlimit:4;stroke-dasharray:none;stroke-dashoffset:7;stroke-opacity:1"
     id="path5227" />
  <path
     d="M 347.82606,475.18912 C 363.07927,497.85631 370.55463,518.2346 404.5349,530.05163 C 407.80879,528.95527 408.29263,526.66317 406.64499,523.45758 C 378.27688,518.15207 368.09752,494.6578 355.21139,473.87031 C 349.99817,469.9076 349.87009,474.08112 347.82606,475.18912 z "
     style="fill:#0a51a1;fill-opacity:1;fill-rule:evenodd;stroke:#0a51a1;stroke-width:1px;stroke-linecap:butt;stroke-linejoin:miter;stroke-opacity:1"
     id="path6238" />
  <path
     d="M 419.11792,465.353 A 6.3302894,15.034437 0 1 1 419.1177,465.22719"
     transform="translate(-56.608328,0.1428716)"
     style="fill:#f0037f;fill-opacity:1;fill-rule:evenodd;stroke:#000000;stroke-width:2;stroke-linecap:square;stroke-linejoin:miter;stroke-miterlimit:4;stroke-dasharray:none;stroke-dashoffset:7;stroke-opacity:1"
     id="path5229" />
  <path
     d="M 419.11792,465.353 A 6.3302894,15.034437 0 1 1 419.1177,465.22719"
     transform="translate(-83.369013,-2.6746409)"
     style="fill:#f0037f;fill-opacity:1;fill-rule:evenodd;stroke:#000000;stroke-width:2;stroke-linecap:square;stroke-linejoin:miter;stroke-miterlimit:4;stroke-dasharray:none;stroke-dashoffset:7;stroke-opacity:1"
     id="path5231" />
  <path
     d="M 419.11792,465.353 A 6.3302894,15.034437 0 1 1 419.1177,465.22719"
     transform="translate(-98.313963,-2.5427599)"
     style="fill:#f0037f;fill-opacity:1;fill-rule:evenodd;stroke:#000000;stroke-width:2;stroke-linecap:square;stroke-linejoin:miter;stroke-miterlimit:4;stroke-dasharray:none;stroke-dashoffset:7;stroke-opacity:1"
     id="path5233" />
  <path
     d="M 419.11792,465.353 A 6.3302894,15.034437 0 1 1 419.1177,465.22719"
     transform="matrix(0.9960314,-8.9003043e-2,8.9003043e-2,0.9960314,-100.20563,-17.721437)"
     style="fill:#8a0a07;fill-opacity:1;fill-rule:evenodd;stroke:#000000;stroke-width:2;stroke-linecap:square;stroke-linejoin:miter;stroke-miterlimit:4;stroke-dasharray:none;stroke-dashoffset:7;stroke-opacity:1"
     id="path5236" />
  <path
     d="M 419.11792,465.353 A 6.3302894,15.034437 0 1 1 419.1177,465.22719"
     transform="matrix(0.9960314,-8.9003043e-2,8.9003043e-2,0.9960314,-115.07953,-16.259933)"
     style="fill:#8a0a07;fill-opacity:1;fill-rule:evenodd;stroke:#000000;stroke-width:2;stroke-linecap:square;stroke-linejoin:miter;stroke-miterlimit:4;stroke-dasharray:none;stroke-dashoffset:7;stroke-opacity:1"
     id="path5238" />
  <path
     d="M 419.11792,465.353 A 6.3302894,15.034437 0 1 1 419.1177,465.22719"
     transform="matrix(0.9793002,0.2024134,-0.2024134,0.9793002,-45.626281,-145.19448)"
     style="fill:#8a0a07;fill-opacity:1;fill-rule:evenodd;stroke:#000000;stroke-width:2;stroke-linecap:square;stroke-linejoin:miter;stroke-miterlimit:4;stroke-dasharray:none;stroke-dashoffset:7;stroke-opacity:1"
     id="path5244" />
  <path
     d="M 419.11792,465.353 A 6.3302894,15.034437 0 1 1 419.1177,465.22719"
     transform="matrix(0.9793002,0.2024134,-0.2024134,0.9793002,-60.288567,-148.09039)"
     style="fill:#8a0a07;fill-opacity:1;fill-rule:evenodd;stroke:#000000;stroke-width:2;stroke-linecap:square;stroke-linejoin:miter;stroke-miterlimit:4;stroke-dasharray:none;stroke-dashoffset:7;stroke-opacity:1"
     id="path5246" />
  <path
     d="M 475.40874,388.49603 A 12.68254,11.563492 0 1 1 475.40829,388.39927"
     transform="translate(4.1440973,-0.186826)"
     style="fill:#34a02c;fill-opacity:1;fill-rule:evenodd;stroke:#000000;stroke-width:2;stroke-linecap:square;stroke-linejoin:miter;stroke-miterlimit:4;stroke-dasharray:none;stroke-dashoffset:7;stroke-opacity:1"
     id="path5248" />
  <path
     d="M 496.06033,395.4011 L 464.80453,367.04668 C 466.07423,365.76925 468.29682,364.96827 470.21165,364.01341 C 464.77284,363.46134 459.92057,361.73619 455.17721,359.79322 C 457.66845,363.83746 459.09505,368.68018 460.18869,373.77261 C 460.84467,371.30055 461.82518,369.80211 462.82631,368.36549 L 494.34588,397.11555 C 495.05002,396.94204 495.70365,396.61698 496.06033,395.4011 z "
     style="fill:#000000;fill-rule:evenodd;stroke:#000000;stroke-width:1px;stroke-linecap:butt;stroke-linejoin:miter;stroke-opacity:1"
     id="path5250" />
  <path
     d="M 439.33223,382.98081 L 470.58803,411.33523 C 469.31833,412.61266 467.09574,413.41364 465.18091,414.3685 C 470.61972,414.92057 475.47199,416.64572 480.21535,418.58869 C 477.72411,414.54445 476.29751,409.70173 475.20387,404.6093 C 474.54789,407.08136 473.56738,408.5798 472.56625,410.01642 L 441.04668,381.26636 C 440.34254,381.43987 439.68891,381.76493 439.33223,382.98081 z "
     style="fill:#000000;fill-rule:evenodd;stroke:#000000;stroke-width:1px;stroke-linecap:butt;stroke-linejoin:miter;stroke-opacity:1"
     id="path5252" />
  <path
     d="M 475.40874,388.49603 A 12.68254,11.563492 0 1 1 475.40829,388.39927"
     transform="translate(-194.06345,68.930571)"
     style="fill:#34a02c;fill-opacity:1;fill-rule:evenodd;stroke:#000000;stroke-width:2;stroke-linecap:square;stroke-linejoin:miter;stroke-miterlimit:4;stroke-dasharray:none;stroke-dashoffset:7;stroke-opacity:1"
     id="path5256" />
  <path
     d="M 297.85278,464.5185 L 266.59698,436.16408 C 267.86668,434.88665 270.08927,434.08567 272.0041,433.13081 C 266.56529,432.57874 261.71302,430.85359 256.96966,428.91062 C 259.4609,432.95486 260.8875,437.79758 261.98114,442.89001 C 262.63712,440.41795 263.61763,438.91951 264.61876,437.48289 L 296.13833,466.23295 C 296.84247,466.05944 297.4961,465.73438 297.85278,464.5185 z "
     style="fill:#000000;fill-rule:evenodd;stroke:#000000;stroke-width:1px;stroke-linecap:butt;stroke-linejoin:miter;stroke-opacity:1"
     id="path5258" />
  <path
     d="M 241.12468,452.09821 L 272.38048,480.45263 C 271.11078,481.73006 268.88819,482.53104 266.97336,483.4859 C 272.41217,484.03797 277.26444,485.76312 282.0078,487.70609 C 279.51656,483.66185 278.08996,478.81913 276.99632,473.7267 C 276.34034,476.19876 275.35983,477.6972 274.3587,479.13382 L 242.83913,450.38376 C 242.13499,450.55727 241.48136,450.88233 241.12468,452.09821 z "
     style="fill:#000000;fill-rule:evenodd;stroke:#000000;stroke-width:1px;stroke-linecap:butt;stroke-linejoin:miter;stroke-opacity:1"
     id="path5260" />
  <path
     d="M 305.0966,520.02867 C 340.71798,510.39353 330.03537,509.83611 430.64734,501.56533 C 432.02982,503.76335 432.84601,505.96136 431.43863,508.15938 C 388.43281,509.82977 346.54177,514.10131 307.73422,525.56767 C 304.55931,525.5579 304.84159,522.78238 305.0966,520.02867 z "
     style="fill:#0a51a1;fill-opacity:1;fill-rule:evenodd;stroke:#0a51a1;stroke-width:1px;stroke-linecap:butt;stroke-linejoin:miter;stroke-opacity:1"
     id="path6241" />
  <path
     d="M 262.83061,526.13857 C 274.45179,496.91466 290.40762,474.15183 328.10839,483.80127 C 328.78998,486.691 327.7988,488.74435 325.49728,490.14253 C 292.07999,480.57617 278.61508,502.1854 268.79886,529.49571 C 266.04816,530.153 264.08938,528.96246 262.83061,526.13857 z "
     style="fill:#0a51a1;fill-opacity:1;fill-rule:evenodd;stroke:#0a51a1;stroke-width:1px;stroke-linecap:butt;stroke-linejoin:miter;stroke-opacity:1"
     id="path6243" />
  <path
     d="M 257.42188,511.40444 C 292.77086,492.51547 315.65558,497.59623 338.36632,503.01158 C 339.53209,505.84699 338.24326,507.63042 335.94172,508.97984 C 312.67231,502.20087 288.55598,500.3975 261.33854,516.81317 C 255.79225,516.42384 257.31209,513.67913 257.42188,511.40444 z "
     style="fill:#0a51a1;fill-opacity:1;fill-rule:evenodd;stroke:#0a51a1;stroke-width:1px;stroke-linecap:butt;stroke-linejoin:miter;stroke-opacity:1"
     id="path6245" />
  <path
     d="M 298.76631,507.89561 C 327.7732,508.14121 353.21616,515.70228 368.92702,543.23973"
     style="fill:none;fill-rule:evenodd;stroke:#0a51a1;stroke-width:2;stroke-linecap:round;stroke-linejoin:miter;stroke-miterlimit:4;stroke-dasharray:none;stroke-opacity:1"
     id="path6248" />
  <path
     d="M 305.62413,541.3934 C 328.21975,529.19856 350.81536,518.95957 373.41098,512.37957"
     style="fill:none;fill-rule:evenodd;stroke:#0a51a1;stroke-width:2;stroke-linecap:round;stroke-linejoin:miter;stroke-miterlimit:4;stroke-dasharray:none;stroke-opacity:1"
     id="path7219" />
  <path
     d="M 695.74287,2.967722 C 699.82154,3.3649636 715.13663,10.301943 718.96126,17.880624 C 730.69217,41.125964 727.05409,64.074861 722.69208,105.1388 C 719.26056,137.44323 710.26613,182.3242 738.53668,194.73019 C 710.91192,209.40128 719.50145,252.5523 726.92504,300.68636 C 729.39753,316.71778 732.6998,356.49317 718.00672,374.04392 C 713.85753,379.0001 702.25919,385.04628 695.65885,387.45362"
     style="fill:none;fill-rule:evenodd;stroke:#f7da61;stroke-width:4.03672934;stroke-linecap:round;stroke-linejoin:round;stroke-miterlimit:4;stroke-dasharray:none;stroke-opacity:1"
     id="path9159"
     sodipodi:nodetypes="csscsss" />
  <path
     d="M 694.14717,396.04222 C 702.33202,396.49542 709.59998,394.79299 709.62757,408.79036 C 710.91388,411.20386 703.57195,419.16333 725.33859,421.59609 C 704.23412,429.0935 711.25271,432.72364 711.3226,437.82093 C 711.1293,451.85861 702.68298,451.88322 693.95364,452.04407"
     style="fill:none;fill-rule:evenodd;stroke:#000000;stroke-width:4;stroke-linecap:round;stroke-linejoin:round;stroke-miterlimit:4;stroke-dasharray:none;stroke-opacity:1"
     id="path10131"
     sodipodi:nodetypes="ccccc" />
  <path
     d="M 693.31344,458.57768 C 701.51979,458.44834 709.98668,457.5571 715.596,466.59002 C 723.12839,482.35693 704.98002,503.42974 730.77625,505.48207 C 706.21779,512.96304 722.92088,520.0484 718.10871,539.58772 C 712.84135,554.87202 701.62394,551.83842 693.29286,552.9507"
     style="fill:none;fill-rule:evenodd;stroke:#abda4e;stroke-width:4;stroke-linecap:round;stroke-linejoin:round;stroke-miterlimit:4;stroke-dasharray:none;stroke-opacity:1"
     id="path11103"
     sodipodi:nodetypes="ccccc" />
  <path
     d="M 537.06642,392.67911 L 444.55897,443.37706 C 440.6701,442.34536 442.27477,437.6893 438.55582,435.91555 C 441.17774,439.42931 428.57279,451.6776 426.55335,455.11646 C 435.4399,453.68925 450.74443,447.80111 458.50562,446.68834 C 454.68251,446.3633 450.85398,446.03145 446.3604,444.86395 L 540.17073,393.86169 C 539.61185,392.72605 538.44534,392.53711 537.06642,392.67911 z "
     style="fill:#ff0000;fill-opacity:1;fill-rule:evenodd;stroke:#ff0000;stroke-width:1.03601003px;stroke-linecap:butt;stroke-linejoin:miter;stroke-opacity:1"
     id="path3160"
     inkscape:transform-center-y="18.088147"
     inkscape:transform-center-x="3.1241991"
     sodipodi:nodetypes="cccccccc" />
</svg>
